<?xml version="1.0" standalone="no"?>
<!DOCTYPE svg PUBLIC "-//W3C//DTD SVG 20010904//EN"
 "http://www.w3.org/TR/2001/REC-SVG-20010904/DTD/svg10.dtd">
<svg version="1.0" xmlns="http://www.w3.org/2000/svg"
 width="260.000000pt" height="260.000000pt" viewBox="0 0 260.000000 260.000000"
 preserveAspectRatio="xMidYMid meet">
<metadata>
Created by potrace 1.11, written by Peter Selinger 2001-2013
</metadata>
<g transform="translate(0.000000,260.000000) scale(0.100000,-0.100000)"
fill="#000000" stroke="none">
<path d="M160 2195 l0 -245 85 0 85 0 0 -650 0 -650 -85 0 -85 0 0 -245 0
-245 245 0 245 0 0 85 0 85 650 0 650 0 0 -85 0 -85 245 0 245 0 0 245 0 245
-85 0 -85 0 0 650 0 650 85 0 85 0 0 245 0 245 -245 0 -245 0 0 -85 0 -85
-650 0 -650 0 0 85 0 85 -245 0 -245 0 0 -245z m328 -3 l3 -83 -83 3 -83 3 -3
69 c-4 99 -5 97 85 94 l78 -3 3 -83z m1787 3 l0 -80 -82 -3 -83 -3 0 79 c0 43
3 82 7 86 4 4 41 5 83 4 l75 -3 0 -80z m-325 -165 l0 -80 80 0 80 0 0 -650 0
-650 -80 0 -80 0 0 -80 0 -80 -650 0 -650 0 0 80 0 80 -80 0 -80 0 0 650 0
650 80 0 80 0 0 80 0 80 650 0 650 0 0 -80z m-1462 -1622 l-3 -83 -80 0 -80 0
-3 69 c-2 38 -1 75 2 83 4 9 28 13 86 13 l81 0 -3 -82z m1787 -3 l0 -80 -80 0
-80 0 -3 83 -3 83 83 -3 83 -3 0 -80z"/>
</g>
</svg>
